HIERARCHY
ROOT Hips
{
  OFFSET 5.84602e-005 68.8428 3.50346
  CHANNELS 6 Xposition Yposition Zposition Zrotation Xrotation Yrotation
  JOINT Spine
  {
    OFFSET 0 8.597 -4.6522
    CHANNELS 3 Zrotation Xrotation Yrotation
    JOINT Spine1
    {
      OFFSET 0 7.8454 0.4098
      CHANNELS 3 Zrotation Xrotation Yrotation
      JOINT Spine2
      {
        OFFSET 0 9.7078 -2.1609
        CHANNELS 3 Zrotation Xrotation Yrotation
        JOINT Neck
        {
          OFFSET 0 21.8761 -0.4549
          CHANNELS 3 Zrotation Xrotation Yrotation
          JOINT Head
          {
            OFFSET 0 12.3537 3.3602
            CHANNELS 3 Zrotation Xrotation Yrotation
            End Site
            {
              OFFSET 0.0001 18.9506 0.5657
            }
          }
        }
        JOINT LeftShoulder
        {
          OFFSET 2.2086 21.1115 7.2329
          CHANNELS 3 Zrotation Xrotation Yrotation
          JOINT LeftArm
          {
            OFFSET 13.1193 3.0282 -4.8998
            CHANNELS 3 Zrotation Xrotation Yrotation
            JOINT LeftForeArm
            {
              OFFSET 27.4081 -0.0973053 -0.2375
              CHANNELS 3 Zrotation Xrotation Yrotation
              JOINT LeftHand
              {
                OFFSET 22.8641 0.0662994 -0.1369
                CHANNELS 3 Zrotation Xrotation Yrotation
                JOINT LeftHandIndex1
                {
                  OFFSET 8.8614 0.775009 2.4612
                  CHANNELS 3 Zrotation Xrotation Yrotation
                  JOINT LeftHandIndex2
                  {
                    OFFSET 3.3146 -0.808304 0.5841
                    CHANNELS 3 Zrotation Xrotation Yrotation
                    JOINT LeftHandIndex3
                    {
                      OFFSET 2.2628 -0.552002 0.3989
                      CHANNELS 3 Zrotation Xrotation Yrotation
                      End Site
                      {
                        OFFSET 1.6102 -0.4807 0.2612
                      }
                    }
                  }
                }
                JOINT LeftHandMiddle1
                {
                  OFFSET 8.9937 0.895004 0.2143
                  CHANNELS 3 Zrotation Xrotation Yrotation
                  JOINT LeftHandMiddle2
                  {
                    OFFSET 4.0984 0.0113983 -0.0242
                    CHANNELS 3 Zrotation Xrotation Yrotation
                    JOINT LeftHandMiddle3
                    {
                      OFFSET 2.2716 0.00689697 -0.0138001
                      CHANNELS 3 Zrotation Xrotation Yrotation
                      End Site
                      {
                        OFFSET 2.0404 -0.1441 0.0027
                      }
                    }
                  }
                }
                JOINT LeftHandRing1
                {
                  OFFSET 8.5234 0.597198 -2.0164
                  CHANNELS 3 Zrotation Xrotation Yrotation
                  JOINT LeftHandRing2
                  {
                    OFFSET 3.7188 -0.188293 -0.2328
                    CHANNELS 3 Zrotation Xrotation Yrotation
                    JOINT LeftHandRing3
                    {
                      OFFSET 2.1191 -0.106598 -0.1332
                      CHANNELS 3 Zrotation Xrotation Yrotation
                      End Site
                      {
                        OFFSET 1.8737 -0.2304 -0.0886
                      }
                    }
                  }
                }
                JOINT LeftHandPinky1
                {
                  OFFSET 7.9094 -0.601089 -3.4825
                  CHANNELS 3 Zrotation Xrotation Yrotation
                  JOINT LeftHandPinky2
                  {
                    OFFSET 2.2874 -0.477005 -0.6314
                    CHANNELS 3 Zrotation Xrotation Yrotation
                    JOINT LeftHandPinky3
                    {
                      OFFSET 1.6774 -0.349396 -0.4633
                      CHANNELS 3 Zrotation Xrotation Yrotation
                      End Site
                      {
                        OFFSET 1.4888 -0.4091 -0.3416
                      }
                    }
                  }
                }
                JOINT LeftHandThumb1
                {
                  OFFSET 1.833 -1.3875 1.3896
                  CHANNELS 3 Zrotation Xrotation Yrotation
                  JOINT LeftHandThumb2
                  {
                    OFFSET 3.4129 -1.121 2.5732
                    CHANNELS 3 Zrotation Xrotation Yrotation
                    JOINT LeftHandThumb3
                    {
                      OFFSET 2.2474 -0.804199 1.6192
                      CHANNELS 3 Zrotation Xrotation Yrotation
                      End Site
                      {
                        OFFSET 1.6527 -0.5689 1.1317
                      }
                    }
                  }
                }
              }
            }
          }
        }
        JOINT RightShoulder
        {
          OFFSET -2.2086 21.1115 7.2329
          CHANNELS 3 Zrotation Xrotation Yrotation
          JOINT RightArm
          {
            OFFSET -13.1216 3.0287 -4.9007
            CHANNELS 3 Zrotation Xrotation Yrotation
            JOINT RightForeArm
            {
              OFFSET -27.4081 -0.0973053 -0.2375
              CHANNELS 3 Zrotation Xrotation Yrotation
              JOINT RightHand
              {
                OFFSET -22.8641 0.0664063 -0.1369
                CHANNELS 3 Zrotation Xrotation Yrotation
                JOINT RightHandIndex1
                {
                  OFFSET -8.8614 0.774994 2.4612
                  CHANNELS 3 Zrotation Xrotation Yrotation
                  JOINT RightHandIndex2
                  {
                    OFFSET -3.3146 -0.808304 0.5841
                    CHANNELS 3 Zrotation Xrotation Yrotation
                    JOINT RightHandIndex3
                    {
                      OFFSET -2.2628 -0.552002 0.3989
                      CHANNELS 3 Zrotation Xrotation Yrotation
                      End Site
                      {
                        OFFSET -1.6102 -0.4807 0.2612
                      }
                    }
                  }
                }
                JOINT RightHandMiddle1
                {
                  OFFSET -8.9937 0.894989 0.2143
                  CHANNELS 3 Zrotation Xrotation Yrotation
                  JOINT RightHandMiddle2
                  {
                    OFFSET -4.0984 0.0113983 -0.0242
                    CHANNELS 3 Zrotation Xrotation Yrotation
                    JOINT RightHandMiddle3
                    {
                      OFFSET -2.2716 0.00691223 -0.0138001
                      CHANNELS 3 Zrotation Xrotation Yrotation
                      End Site
                      {
                        OFFSET -2.0404 -0.1441 0.0027
                      }
                    }
                  }
                }
                JOINT RightHandRing1
                {
                  OFFSET -8.5234 0.597198 -2.0164
                  CHANNELS 3 Zrotation Xrotation Yrotation
                  JOINT RightHandRing2
                  {
                    OFFSET -3.7188 -0.188309 -0.2328
                    CHANNELS 3 Zrotation Xrotation Yrotation
                    JOINT RightHandRing3
                    {
                      OFFSET -2.1191 -0.106598 -0.1332
                      CHANNELS 3 Zrotation Xrotation Yrotation
                      End Site
                      {
                        OFFSET -1.8737 -0.2304 -0.0886
                      }
                    }
                  }
                }
                JOINT RightHandPinky1
                {
                  OFFSET -7.9094 -0.601105 -3.4825
                  CHANNELS 3 Zrotation Xrotation Yrotation
                  JOINT RightHandPinky2
                  {
                    OFFSET -2.2874 -0.477005 -0.6314
                    CHANNELS 3 Zrotation Xrotation Yrotation
                    JOINT RightHandPinky3
                    {
                      OFFSET -1.6774 -0.349396 -0.4633
                      CHANNELS 3 Zrotation Xrotation Yrotation
                      End Site
                      {
                        OFFSET -1.4888 -0.4091 -0.3416
                      }
                    }
                  }
                }
                JOINT RightHandThumb1
                {
                  OFFSET -1.833 -1.38751 1.3896
                  CHANNELS 3 Zrotation Xrotation Yrotation
                  JOINT RightHandThumb2
                  {
                    OFFSET -3.41299 -1.12099 2.5732
                    CHANNELS 3 Zrotation Xrotation Yrotation
                    JOINT RightHandThumb3
                    {
                      OFFSET -2.24741 -0.804108 1.6192
                      CHANNELS 3 Zrotation Xrotation Yrotation
                      End Site
                      {
                        OFFSET -1.6527 -0.5689 1.1317
                      }
                    }
                  }
                }
              }
            }
          }
        }
      }
    }
  }
  JOINT RightUpLeg
  {
    OFFSET -9.1966 3.8861 -0.7581
    CHANNELS 3 Zrotation Xrotation Yrotation
    JOINT RightLeg
    {
      OFFSET -0.7359 -41.0265 0
      CHANNELS 3 Zrotation Xrotation Yrotation
      JOINT RightFoot
      {
        OFFSET 0 -40.2855 0
        CHANNELS 3 Zrotation Xrotation Yrotation
        JOINT RightToeBase
        {
          OFFSET 0 -5.6122 11.7359
          CHANNELS 3 Zrotation Xrotation Yrotation
          End Site
          {
            OFFSET 0 0 7.8731
          }
        }
      }
    }
  }
  JOINT LeftUpLeg
  {
    OFFSET 9.1965 3.8864 -0.7581
    CHANNELS 3 Zrotation Xrotation Yrotation
    JOINT LeftLeg
    {
      OFFSET 0.7359 -41.0268 0
      CHANNELS 3 Zrotation Xrotation Yrotation
      JOINT LeftFoot
      {
        OFFSET 0 -40.2855 0
        CHANNELS 3 Zrotation Xrotation Yrotation
        JOINT LeftToeBase
        {
          OFFSET 0 -5.6122 11.7359
          CHANNELS 3 Zrotation Xrotation Yrotation
          End Site
          {
            OFFSET 0 0 7.8731
          }
        }
      }
    }
  }
}
MOTION
Frames:	4
Frame Time:	0.0333333
5.84602e-005 68.8428 3.50346 0 0 -0 0 0 -0 0 0 -0 0 0 -0 0 0 -0 0 0 -0 0 0 -0 0 0 -0 0 0 -0 0 0 -0 0 0 -0 0 0 -0 0 0 -0 0 0 -0 -0.0146107 -8.87603e-005 -2.63497e-007 2.99804e-018 -2.42657e-020 -1.42182e-022 0 0 -0 -0.0187562 -0.001176 5.858e-005 5.06224e-018 3.88251e-019 1.21329e-020 0 0 -0 -0.012269 -0.00324817 0.000675346 -1.74678e-018 3.88251e-019 -0 0 0 -0 0 0 -0 0 0 -0 0 0 -0 0 0 -0 0 0 -0 0 0 -0 0 0 -0 0 0 -0 0 0 -0 0 0 -0 0.0149955 -9.10982e-005 2.64101e-007 -9.69331e-018 1.21329e-020 -4.7394e-023 0 0 -0 0.0189956 -0.00119102 -5.96516e-005 -5.41541e-019 0 2.42657e-020 0 0 -0 0.0122698 -0.00324857 -0.000673756 -2.00796e-019 0 -1.94126e-019 0 0 -0 0 0 -0 0 0 -0 3.39842 1.33031 -0.0637918 -5.65207e-008 0.834868 -0.000436188 -3.39935 -2.16518 -0.0642563 -8.89002e-024 -1.18485e-023 -1.48106e-024 -3.39844 1.35642 0.0640283 -3.18788e-007 0.782166 -0.000588827 3.39931 -2.13858 0.0634662 1.1399e-023 0 -0 
0.00166646 23.7771 7.25531 -0 -59.8095 -0 -0.128338 1.10702 -0.253428 -0.251848 2.21457 -0.504516 -0.251848 2.21456 -0.504516 1.15714e-005 4.08067 3.61424e-005 1.53875e-007 14.1872 -3.31365e-008 -1.53668 -4.64234 -5.39186 -6.07763 -13.7169 -34.5548 -25.5243 -12.6199 -37.4347 -30.4668 -7.81633 -17.9317 2.47775e-006 -1.99903e-006 2.89621e-007 4.05763e-007 8.75736e-007 -4.54815e-007 -8.11525e-007 -1.75147e-006 9.0963e-007 2.47775e-006 -1.99903e-006 2.89621e-007 -0.0146193 -8.81432e-005 -3.61702e-006 -8.11518e-007 -1.75159e-006 9.09407e-007 2.47775e-006 -1.99903e-006 2.89621e-007 -0.0187447 -0.00117154 6.85444e-005 -6.16348e-007 -1.70679e-006 5.96191e-007 2.47775e-006 -1.99903e-006 2.89621e-007 -0.0123565 -0.00327273 0.000674123 -8.11504e-007 -1.75156e-006 9.09464e-007 2.47775e-006 -1.99903e-006 2.89621e-007 4.05763e-007 8.75736e-007 -4.54815e-007 -8.11525e-007 -1.75147e-006 9.0963e-007 1.55273 -4.55823 5.23889 6.08262 -13.6904 34.5767 25.4908 -12.6818 37.4113 30.4824 -7.7698 18.1655 1.69376e-007 -3.44423e-007 -1.8672e-007 1.69376e-007 -3.44423e-007 -1.8672e-007 1.69376e-007 -3.44423e-007 -1.8672e-007 1.69376e-007 -3.44423e-007 -1.8672e-007 0.0150075 -8.90785e-005 -2.56158e-006 1.69374e-007 -3.44448e-007 -1.86675e-007 1.69376e-007 -3.44423e-007 -1.8672e-007 0.0189421 -0.00119021 -5.60268e-005 5.99767e-007 -7.37205e-009 -2.55026e-007 1.69376e-007 -3.44423e-007 -1.8672e-007 0.0121824 -0.00322379 -0.000674058 1.69372e-007 -3.44442e-007 -1.86688e-007 1.69376e-007 -3.44423e-007 -1.8672e-007 1.69376e-007 -3.44423e-007 -1.8672e-007 1.69376e-007 -3.44423e-007 -1.8672e-007 -3.77595 -29.2912 -6.82981 -8.27194 79.3066 8.26053 -5.16533 2.06349 -1.56843 -2.83087e-008 6.97436e-009 -4.2534e-007 3.83145 -36.0387 7.51542 84.2895 87.6222 -84.4169 5.15385 1.96386 1.81217 -2.10124e-007 4.27946e-007 -4.25814e-007 
0.00501578 -1.98474 5.97518 -180 -85.3016 -180 -0.188729 1.77852 -0.406771 -0.365077 3.55836 -0.808259 -0.365077 3.55837 -0.808259 3.37944e-006 6.28827 -8.87162e-006 1.12334e-007 22.1944 4.10493e-007 -2.80675 -7.41773 -8.62313 -16.3233 -15.3954 -55.8655 -46.7871 -13.0892 -60.0451 -50.4587 -11.4428 -28.742 -4.18121e-007 -3.64532e-008 -7.51512e-008 -4.18121e-007 -3.64532e-008 -7.51512e-008 -8.36242e-007 -7.29063e-008 -1.50302e-007 -4.18121e-007 -3.64532e-008 -7.51512e-008 -0.0145969 -8.87016e-005 -7.97315e-007 -8.36247e-007 -7.28873e-008 -1.50311e-007 -4.18121e-007 -3.64532e-008 -7.51512e-008 -0.0187374 -0.00117632 5.97717e-005 -8.3625e-007 -7.28818e-008 -1.50306e-007 -4.18121e-007 -3.64532e-008 -7.51512e-008 -0.0123024 -0.00325819 0.000678499 -8.36251e-007 -7.28865e-008 -1.50286e-007 -4.18121e-007 -3.64532e-008 -7.51512e-008 -4.18121e-007 -3.64532e-008 -7.51512e-008 -8.36242e-007 -7.29063e-008 -1.50302e-007 2.81283 -7.28711 8.38331 16.32 -15.3567 55.8945 46.7657 -13.1627 60.0203 50.4962 -11.3499 29.111 -1.11592e-007 -1.67029e-006 -1.39843e-007 1.78189e-006 1.5587e-006 4.4616e-007 -1.11592e-007 -1.67029e-006 -1.39843e-007 -1.11592e-007 -1.67029e-006 -1.39843e-007 0.0150009 -9.07006e-005 3.11802e-007 -1.11552e-007 -1.67031e-006 -1.39624e-007 -1.11592e-007 -1.67029e-006 -1.39843e-007 0.0189402 -0.00118552 -6.02169e-005 -1.11542e-007 -1.67032e-006 -1.39566e-007 -1.11592e-007 -1.67029e-006 -1.39843e-007 0.0122666 -0.00324704 -0.000677958 -1.11553e-007 -1.67032e-006 -1.39663e-007 -1.11592e-007 -1.67029e-006 -1.39843e-007 1.78189e-006 1.5587e-006 4.4616e-007 -1.11592e-007 -1.67029e-006 -1.39843e-007 -11.1396 -45.8072 -14.5239 -173.302 55.8585 170.901 -5.94138 4.8982 -3.24626 1.05765e-007 8.79573e-009 -1.1125e-008 13.1678 -55.9442 19.2117 173.714 39.3869 -169.655 5.84367 4.43904 4.41926 1.98785e-016 -7.95139e-016 1.59028e-015 
0.00354058 1.22361 6.22566 -180 -89.5737 -180 -0.180651 1.7686 -0.38901 -0.349528 3.53837 -0.772989 -0.349528 3.53838 -0.772988 4.34075e-006 5.55279 -1.2621e-005 -2.14646e-007 20.4901 -2.5394e-007 -2.54672 -7.39625 -8.34278 -14.9354 -15.5513 -53.2793 -44.0174 -13.5176 -57.2149 -47.9302 -11.0567 -27.4007 1.98785e-015 3.18055e-015 -1.59028e-015 1.59028e-015 0 -1.59028e-015 1.19271e-015 -3.18055e-015 -1.59028e-015 1.98785e-015 3.18055e-015 -1.59028e-015 -0.014625 -8.97565e-005 -6.16218e-007 -5.56597e-015 0 7.95139e-016 1.98785e-015 3.18055e-015 -1.59028e-015 -0.0187722 -0.00117662 5.90428e-005 -1.98785e-015 -3.18055e-015 -7.95139e-016 1.98785e-015 3.18055e-015 -1.59028e-015 -0.0122486 -0.00324327 0.000674132 4.37326e-015 -3.18055e-015 7.95139e-016 1.98785e-015 3.18055e-015 -1.59028e-015 1.59028e-015 0 -1.59028e-015 1.19271e-015 -3.18055e-015 -1.59028e-015 2.55325 -7.26813 8.1276 14.9336 -15.5139 53.3076 43.9978 -13.5868 57.196 47.9648 -10.9705 27.7533 -1.98785e-015 0 -7.95139e-016 1.98785e-015 3.18055e-015 -1.59028e-015 -1.39149e-015 9.54166e-015 3.18055e-015 -1.98785e-015 0 -7.95139e-016 0.0149704 -9.16593e-005 1.94347e-007 -3.3271e-007 4.49501e-007 1.24531e-007 -1.98785e-015 0 -7.95139e-016 0.0189853 -0.00119024 -5.92628e-005 2.5842e-015 3.18055e-015 -7.95139e-016 -1.98785e-015 0 -7.95139e-016 0.0122373 -0.00324076 -0.000673854 0 6.36111e-015 -0 -1.98785e-015 0 -7.95139e-016 1.98785e-015 3.18055e-015 -1.59028e-015 -1.39149e-015 9.54166e-015 3.18055e-015 -10.04 -43.8525 -13.2103 -172.591 61.3091 170.678 -5.86831 4.59377 -2.94962 -1.05847e-007 -8.48696e-009 1.06353e-008 11.6422 -53.666 16.8787 173.225 45.5964 -170.15 5.79843 4.2465 3.86531 -2.62043e-007 -1.37828e-006 -1.87803e-006 
